<svg width="112" height="29" fill="none" xmlns="http://www.w3.org/2000/svg">
  <g fill="#13183F">
    <path d="M9.68399 28.432c-2.16 0-4.038-.51-5.634-1.53s-2.682-2.394-3.257998-4.122l3.959998-1.872c.504 1.056 1.188 1.884 2.052 2.484.864.6 1.824.9 2.88.9.76801 0 1.35601-.156 1.76401-.468.408-.312.612-.744.612-1.296 0-.288-.072-.534-.216-.738-.144-.204-.36-.39-.648-.558-.288-.168-.648-.312-1.08-.432l-3.34801-.936c-1.608-.456-2.844-1.194-3.708-2.214-.864-1.02-1.296-2.226-1.296-3.618 0-1.224.312-2.292.936-3.204.624-.91201 1.5-1.62601 2.628-2.14201 1.128-.516 2.424-.774 3.888-.774 1.92001 0 3.60601.45 5.05801 1.35 1.452.90001 2.478 2.16601 3.078 3.79801l-3.996 1.872c-.288-.816-.81-1.47-1.566-1.962s-1.614-.738-2.57401-.738c-.696 0-1.242.144-1.638.432-.396.288-.594.684-.594 1.188 0 .264.072.504.216.72.144.216.378.408.702.576.324.168.726.324 1.206.468l3.13201.936c1.632.48 2.88 1.206 3.744 2.178.864.972 1.296 2.166 1.296 3.582 0 1.224-.318 2.292-.954 3.204-.636.912-1.518 1.626-2.646 2.142s-2.46.774-3.99601.774ZM20.52 28V.748047h5.4V18.208l-2.016-.648 8.676-9.21595h6.66L32.112 16.264 39.204 28h-6.12l-5.94-9.972 3.132-.792-6.012 6.552 1.656-3.132V28h-5.4Z"/>
    <path fill-rule="evenodd" clip-rule="evenodd" d="M41.616 1.18005v5.4h5.4v-5.4h-5.4Zm0 7.164V28.0001h5.4V8.34405h-5.4Z"/>
    <path d="M50.9761 28V.748047h5.4V28h-5.4Zm9.3598 0V.748047h5.4V28h-5.4Zm18.8282.432c-2.088 0-3.9-.462-5.436-1.386-1.536-.924-2.724-2.166-3.564-3.726-.84-1.56-1.26-3.288-1.26-5.184 0-1.968.438-3.72 1.314-5.256.876-1.536 2.058-2.748 3.546-3.63601 1.488-.888 3.168-1.332 5.04-1.332 1.56 0 2.94.246 4.14.738 1.2.492 2.214 1.182 3.042 2.07001.828.888 1.458 1.914 1.89 3.078.432 1.164.648 2.43.648 3.798 0 .384-.018.762-.054 1.134-.036.372-.102.69-.198.954h-14.724v-3.96h11.664l-2.556 1.872c.24-1.032.228-1.95-.036-2.754s-.726-1.44-1.386-1.908c-.66-.468-1.47-.702-2.43-.702-.936 0-1.74.228-2.412.684-.672.456-1.176 1.128-1.512 2.016-.336.888-.468 1.968-.396 3.24-.096 1.104.036 2.076.396 2.916.36.84.912 1.494 1.656 1.962.744.468 1.644.702 2.7.702.96 0 1.782-.192 2.466-.576.684-.384 1.218-.912 1.602-1.584l4.32 2.052c-.384.96-.99 1.8-1.818 2.52-.828.72-1.806 1.278-2.934 1.674-1.128.396-2.364.594-3.708.594Z"/>
    <path fill-rule="evenodd" clip-rule="evenodd" d="M95.7959 27.064c1.512.912 3.228 1.368 5.1481 1.368 1.344 0 2.592-.246 3.744-.738.886-.3783 1.63-.8951 2.232-1.5503V28h5.04V.748047h-5.4V9.99442c-.515-.51081-1.121-.93493-1.818-1.27237-1.116-.54-2.394-.81-3.834-.81-1.8721 0-3.5641.456-5.0761 1.368-1.512.91195-2.712 2.14195-3.6 3.68995-.888 1.548-1.332 3.282-1.332 5.202 0 1.896.438 3.624 1.314 5.184.876 1.56 2.07 2.796 3.582 3.708Zm8.3881-4.176c-.744.456-1.608.684-2.592.684s-1.8661-.228-2.6461-.684c-.78-.456-1.386-1.092-1.818-1.908-.432-.816-.648-1.752-.648-2.808 0-1.056.216-1.986.648-2.79.432-.804 1.038-1.44 1.818-1.908.78-.468 1.6621-.702 2.6461-.702.984 0 1.848.228 2.592.684.744.456 1.326 1.092 1.746 1.908.42.816.63 1.752.63 2.808 0 1.056-.21 1.992-.63 2.808-.42.816-1.002 1.452-1.746 1.908Z"/>
  </g>
</svg>
